<?xml version="1.0" encoding="UTF-8"?>
<svg id="Layer_1" data-name="Layer 1" xmlns="http://www.w3.org/2000/svg" viewBox="0 0 554.02 151.59">
  <defs>
    <style>
      .cls-1 {
        fill: #fff;
      }
    </style>
  </defs>
  <path class="cls-1" d="M151.87,0v151.59H0V0h151.87ZM148.37,3.49H3.5v144.61h144.88V3.49Z"/>
  <path class="cls-1" d="M344.21,133.64v-2.99c1.87-.3,6.86.83,7.75-.99l.25-48.12c-.5-2.71-5.96-1.49-8-1.74v-2.5h33.72c.49,0,3.67,1.24,4.42,1.57,24.34,10.58,16.65,54.78-7.42,54.78h-30.72ZM360.31,130.03c1.32,1.3,14.48.64,16.86-.14,15.18-4.95,15.27-44.55.79-49.14-2.87-.91-15.1-1.7-17.4-.47l-.54.61.29,49.14Z"/>
  <path class="cls-1" d="M544.54,77.29l.5,19.95h-2.5c-.41-8.66-2.96-16.56-12.75-17.45-2.16-.2-11.95-.29-13.35.49-.34.19-.88.99-.88,1.24v21.19h7.74c3.59,0,5.92-9.52,5.75-12.46h2.49s0,28.42,0,28.42h-2.49c.2-3.25-2.16-12.96-6.25-12.96h-7.24v23.19c0,.2.58,1.12.84,1.28,1.17.72,11.85.66,13.89.46,10.34-1.02,12.07-10.79,12.74-19.45h2.5s-1,22.44-1,22.44h-44.46v-2.99c1.87-.3,6.86.83,7.75-.99l.25-48.12c-.5-2.71-5.96-1.49-8-1.74v-2.5h44.46Z"/>
  <path class="cls-1" d="M463.61,125.41l-1.25-.77-.76.26c-2.8,3.85-6.6,9.18-11.73,9.74-34.07,3.71-31.65-65.44,1.28-58.62,4.09.85,7.2,4.45,10.66,6.23l2.35-5.9,2.45-.05.5,24.94-2.76-.49c-1.52-7.38-6.8-21.02-15.47-21.95-11.98-1.29-14.17,10.97-14.74,20.2-.51,8.3-.76,29.07,9.07,32.32,12.27,4.06,18.08-11.37,15.65-21.11-.14-.22-1.36-1-1.5-1h-9.24v-2.99h26.48v2.99c-2.65.26-5.93-.87-7.99,1.24v24.18h-3v-9.22Z"/>
  <path class="cls-1" d="M290.63,75.92c21.15-2.89,29.45,22.12,25.16,39.08-7.29,28.83-40.03,25.05-44.47-4.11-1.95-12.77,4.5-32.95,19.3-34.97ZM290.62,78.9c-4.18.76-6.97,4.92-8.37,8.6-4.52,11.86-5.35,51.06,16.28,43.68,9.92-3.38,10.26-23.12,9.7-31.69-.7-10.82-4.08-23.04-17.61-20.58Z"/>
  <path class="cls-1" d="M223.31,77.29v2.49h-7.24c-.19,0-1.75,1.13-1.75,1.25v48.37c0,1.76,8.59,1.38,10.23,1.24,12.02-1.03,13.4-10.53,15.47-20.46l2.27-.48-.5,23.94h-42.96v-2.99s7.49-.5,7.49-.5v-49.12c0-1.81-6.21-1.16-7.5-1.24v-2.5h24.48Z"/>
  <path class="cls-1" d="M230.3,45.88c-1.79-.22-4.18.67-5.5-.75v-22.19l-9.49,16.45-9-16.45v22.19c-1.32,1.42-3.71.52-5.5.75V13.46l6.28.46,8.45,15.49,8.49-15.45c.92-.81,5.24-.92,6.25.26v31.66Z"/>
  <path class="cls-1" d="M467.35,13.46c5.6.6,9.59,4.11,8.62,10.1-.16,1.01-1.17,3.43-1.9,4.09-.87.79-2.35.32-1.98,1.75,6.89,1.72,6.29,11.77.98,15.19-.39.25-2.52,1.27-2.73,1.27h-17.24V14.21l.75-.75c4.32.33,9.25-.45,13.49,0ZM458.61,26.93h9.74c2.18,0,3.02-8.48-1-8.48h-8.74v8.48ZM458.61,40.89h10.24c3.19,0,3.18-8.98,0-8.98h-10.24v8.98Z"/>
  <path class="cls-1" d="M259.69,13.08c21.4-.8,18.62,39.97-4.4,32.54-12.9-4.16-12.69-31.9,4.4-32.54ZM265.6,20.12c-3.74-3.43-10.32-2.34-12.41,2.48-1.25,2.89-1.24,8.76-.78,11.93,1.16,7.93,11.92,9.53,14.95,2.22,1.67-4.01,1.65-13.5-1.77-16.63Z"/>
  <path class="cls-1" d="M518.06,45.87l-5.51-.23-2.72-7.76-11.43-.42-3.29,8.18-5.51.23,10.97-32.18,6.77.26,10.73,31.92ZM508.07,32.41l-4.25-13.47-4.25,13.47h8.49Z"/>
  <path class="cls-1" d="M384.67,45.87l-5.51-.23-3.29-8.18-11.37-.1-2.78,8.28-5.51.23,10.97-32.18,6.77.26,10.73,31.92ZM374.68,32.41l-4-12.96c-.69.06-.8.71-1.02,1.22-1.42,3.38-2.31,8.16-3.47,11.74h8.49Z"/>
  <path class="cls-1" d="M310.24,18.45h-14.49v8.48h12.99v4.99h-12.99v13.96h-5.5V13.46h19.23c1.37,1.19.56,3.34.75,4.99Z"/>
  <path class="cls-1" d="M346.21,18.45h-14.49v8.48h12.99v4.99h-12.99v13.96h-5.5V13.46h19.23c1.37,1.19.56,3.34.75,4.99Z"/>
  <path class="cls-1" d="M537.54,33.16c-.46-1.75-6.2-10.41-7.58-12.88-.44-.79-3.72-6.54-3.41-6.82l6.25.49,7.49,13.97c1.59-2.12,6.26-13.32,7.74-14.22.87-.54,5.99-.48,5.99.51l-10.98,18.45v13.21h-5.5c-.59-3.4.8-9.71,0-12.72Z"/>
  <path class="cls-1" d="M417.65,13.46v4.99h-9.49v27.43c-1.79-.22-4.18.67-5.5-.75v-26.68h-9.49c.19-1.64-.62-3.8.75-4.99h23.73Z"/>
  <path class="cls-1" d="M75.94,52.36c5.92-.91,11.68-5.24,17.74-4.5,5.13.63,7.92,6.68,3.75,10.25-5.93,5.07-15.07-2.19-21.5-2.76-1.32,1.37,4.5,11.78,4.51,13.7.02,2.05-2.41,8.17-2.87,11.12-2.26,14.33-.65,29.5-1.14,43.99h-4.5c-.77-15.47,1.69-32.31-1.65-47.47-.42-1.9-2.31-6.42-2.29-7.65s3.01-6.87,3.59-8.83c.47-1.58.97-3.19.86-4.88-5.69.51-11.54,5.02-17.23,4.49-8.1-.76-7.89-11.07-.51-11.98,5.94-.73,11.96,3.46,17.74,4.5,1.19-1.64-4.71-13.53-4.51-17.19.27-4.91,5.05-8.62,9.54-5.53,7.03,4.84-1.43,16.31-1.52,22.72Z"/>
</svg>